<svg xmlns="http://www.w3.org/2000/svg" viewBox="0 0 464.57 228.94"><defs><style>.cls-1{fill:#fcbe00;}.cls-2{fill:#007ec5;}</style></defs><title>logo</title><g id="Layer_2" data-name="Layer 2"><g id="Layer_1-2" data-name="Layer 1"><g id="Layer_2-2" data-name="Layer 2"><g id="Vrstva_1" data-name="Vrstva 1"><path class="cls-1" d="M59.55,166.67H49.43s-3.06.3-5.32-4.4c-2.39-5-6.37-8.72-13.69-8.82-6-.08-15.38,3.74-15.86,20-.46,15.73,8.58,23.2,16.09,23.2,6.72,0,13.15-5.39,14.47-14.29H59.8S59.13,209,29.87,209C1.28,209,0,179.14,0,174.43s1.28-33.58,30.8-33.58c0,0,24.38-1.3,28.75,25.82"/><path class="cls-1" d="M30.9,126.61l15.14-7v4.51c0,4.32-1.56,6.43-5.76,8.64L30.8,137.7l-9.28-4.85c-3.71-1.94-6-4.32-6-9v-4.33Z"/><path class="cls-2" d="M351,144a17.54,17.54,0,0,1-8.6,2.09h-8.68v-.19a41.84,41.84,0,0,1,7.15-8.33c3-2.52,5.33-4.18,9.05-4.18,3.14,0,5.33,1.31,5.33,4.44A7.26,7.26,0,0,1,351,144"/><path class="cls-1" d="M79.16,174.47h21.5q-.43-5.7-3-8.43-2.75-3-7.8-3a10.22,10.22,0,0,0-7.59,3q-3,3-3.16,8.43M104.45,191H115q-2.31,8.85-8.85,13.49-6.56,4.8-16.45,4.81-12,0-18.76-7.8-6.75-7.59-6.75-21.72,0-13.5,6.54-21.08,6.74-7.78,18.76-7.8,12.65,0,19.6,7.59,6.75,7.8,6.75,21.72v2.31a3.58,3.58,0,0,1-.22,1.48H79.16q.21,6.54,3.16,9.7Q85.05,197,90.54,197a12,12,0,0,0,6.11-1.48,10.88,10.88,0,0,0,1.2-.8A6.6,6.6,0,0,0,99,193.66a7.06,7.06,0,0,1,1.58-1.69,6.34,6.34,0,0,1,3.9-1"/><path class="cls-1" d="M121.62,189.65H136a7.77,7.77,0,0,0,3.17,6.32,14.91,14.91,0,0,0,8.42,2.11,13.61,13.61,0,0,0,6.54-1.48,4.46,4.46,0,0,0,2.53-4q0-3.78-8.85-5.69a39.75,39.75,0,0,1-5.7-1.27q-11.16-2.73-15-6.53A12.94,12.94,0,0,1,122.88,169,16.82,16.82,0,0,1,129,155.71q6.31-4.85,16.44-4.85,11,0,17.5,4.85a18.58,18.58,0,0,1,6.53,13.7h-9.06a6.86,6.86,0,0,1-6.12-3.58,5.76,5.76,0,0,0-1.69-1.68,11.2,11.2,0,0,0-6.95-1.9,12.45,12.45,0,0,0-6.32,1.26,4.23,4.23,0,0,0-1.9,3.8q0,3.38,11,5.69c1.14.24,2.79.53,4,.84q10.75,2.76,15,6.33a13.25,13.25,0,0,1,4,10.11q0,9.27-6.75,14.34-6.31,4.63-19,4.64-12,0-17.92-4.85-6.12-4.84-6.11-14.13Z"/><path class="cls-1" d="M193.27,158.85v15.51l18.63-21.79,17-.45-20,21.51,20.23,34.57H211.4l-10.33-19q-3.16-5.7-5.48-4.85c-1.55.57-2.32,1.41-2.32,2.53v21.29H178.51v-65.8h7.59a6.89,6.89,0,0,1,5.06,2.12,6.68,6.68,0,0,1,2.11,4.85Z"/><path class="cls-1" d="M263.46,180a41.21,41.21,0,0,1-8.23,2.74l-4.84,1c-2.53.7-4.72,1.8-5.49,2.74a7.57,7.57,0,0,0-1.47,4.64,6.85,6.85,0,0,0,1.9,5.06,8.08,8.08,0,0,0,5.48,1.68q5.9,0,9.27-3.37t3.38-9.28Zm3.37,25.92a25.86,25.86,0,0,1-9.39,2.85,85.06,85.06,0,0,1-8.74.53,22,22,0,0,1-13.28-4.12q-5.68-4.11-5.69-13.59c0-5.91,1.71-10.12,5.16-12.65a29.66,29.66,0,0,1,13.18-5.06l2.5-.37L254,173q9.27-1.26,9.28-5.48a4,4,0,0,0-3.27-4.11,21.42,21.42,0,0,0-6-1,15.23,15.23,0,0,0-5.27.84,5.71,5.71,0,0,0-3.37,3.16H231.2a16.23,16.23,0,0,1,5.91-10.75q5.69-4.84,16.23-4.85,11.8,0,17.7,4a13.54,13.54,0,0,1,6.12,11.81v19.23q0,8.43-3.06,13.17a18.64,18.64,0,0,1-7.27,6.85"/><path class="cls-2" d="M383.19,99h-.08s-54.68-33.62-31.78-59c0,0,11.61-15.28,31.57,4.91h.5C404.4,26,415,40,415,40c22.9,25.48-31.78,59.1-31.78,59.1m60.1-45.75c-.07-.55-.14-1.1-.22-1.63a60.34,60.34,0,0,0-1.27-6.26c-.36-1.41-.77-2.81-1.23-4.18-.18-.53-.36-1.06-.56-1.58a59.64,59.64,0,0,0-7.32-13.88h0a25.08,25.08,0,0,0-27.82-8.32C390.61,21.65,386,31.74,384.29,37h-1.4c.9-12,4.58-23.79,17.52-30.58a43.58,43.58,0,0,1,5-2.2A60.85,60.85,0,0,0,331,29.7a60,60,0,0,0-2.89,5.5c-.8,1.73-1.51,3.51-2.15,5.33-.32.91-.61,1.83-.88,2.75A58.34,58.34,0,0,0,323,53.34a60.57,60.57,0,1,0,120.28-.08"/><path class="cls-2" d="M332.68,152h7.77a7.38,7.38,0,0,1,7.34,7.34V208H332.68Z"/><path class="cls-2" d="M397.23,180.19q0-8.26-3.18-12.72a10.52,10.52,0,0,0-9.12-4.45,10.32,10.32,0,0,0-8.9,4.45q-3,4-3,12.72,0,8.06,3.18,12.08a10.54,10.54,0,0,0,9.11,4.45,10.13,10.13,0,0,0,8.7-4.45q3.18-4.46,3.18-12.08M373,221.74a7.24,7.24,0,0,1-7.21,7.2h-7.2V176.16q0-14.83,8.69-20.24a34.92,34.92,0,0,1,18.87-5.41,30.57,30.57,0,0,1,10.7,2,19.94,19.94,0,0,1,8.58,5.83q6.36,8.28,6.36,21.2,0,13.35-6.36,21.62a19.92,19.92,0,0,1-16.32,8.06,21.59,21.59,0,0,1-9.33-1.91,16,16,0,0,1-6.78-6.57Z"/><path class="cls-2" d="M450.74,179.77a40.76,40.76,0,0,1-8.27,2.75l-4.87,1.06c-2.55.71-4.74,1.81-5.51,2.76A7.51,7.51,0,0,0,430.6,191a6.89,6.89,0,0,0,1.91,5.09,8,8,0,0,0,5.51,1.69q5.94,0,9.33-3.39t3.39-9.33Zm3.39,26.07a26.21,26.21,0,0,1-9.43,2.86,86.22,86.22,0,0,1-8.8.53,22.24,22.24,0,0,1-13.35-4.14q-5.73-4.12-5.73-13.67c0-5.94,1.73-10.17,5.2-12.72a29.9,29.9,0,0,1,13.25-5.09l2.51-.36,3.42-.48q9.33-1.28,9.33-5.51c0-2.12-1.13-3.41-3.29-4.14a17.49,17.49,0,0,0-6-1,15.18,15.18,0,0,0-5.3.85,5.72,5.72,0,0,0-3.39,3.18h-14.2a16.35,16.35,0,0,1,5.93-10.81q5.73-4.89,16.32-4.88,11.88,0,17.81,4a13.61,13.61,0,0,1,6.15,11.88v19.29q0,8.46-3.07,13.25a18.94,18.94,0,0,1-7.32,6.89"/><path class="cls-2" d="M313.68,141.83h-6.8s-8.23-.39-8.23,8.23V185s-.63,23,26.9,23V196.27s.2-2-3.66-2.81c-3.21-.71-8.35-2.94-8.35-11.89,0-9.79.14-39.74.14-39.74"/><path class="cls-1" d="M268.85,144a17.54,17.54,0,0,1-8.6,2.09h-8.68v-.19a41.84,41.84,0,0,1,7.15-8.33c3-2.52,5.33-4.18,9-4.18,3.14,0,5.33,1.31,5.33,4.44A7.26,7.26,0,0,1,268.8,144"/></g></g></g></g></svg>