<svg xmlns="http://www.w3.org/2000/svg" xmlns:xlink="http://www.w3.org/1999/xlink" viewBox="0 0 375 218.06"><defs><style>.cls-1{fill:url(#linear-gradient);}.cls-2{fill:#007dc4;}.cls-3{fill:none;stroke:#007dc4;stroke-linecap:square;}.cls-4{isolation:isolate;}.cls-5{fill:#007ec4;}</style><linearGradient id="linear-gradient" x1="-493.18" y1="491.95" x2="-493.18" y2="490.09" gradientTransform="matrix(375, 0, 0, -139, 185130, 68340.75)" gradientUnits="userSpaceOnUse"><stop offset="0" stop-color="#fff64c"/><stop offset="0.62" stop-color="#fdde2c"/><stop offset="1" stop-color="#fabd00"/></linearGradient></defs><title>elevation_example</title><g id="Layer_2" data-name="Layer 2"><g id="Layer_1-2" data-name="Layer 1"><g id="Symbols"><g id="map"><g id="Group"><path id="Primary" class="cls-1" d="M15,115.52c10.72,0,15.88,6.56,31.42,6.9s9.13,25.91,28.51,26.14,14.54-5.29,34.46-5.73,15.23-63.77,31.95-63.77,10.63,46.52,32.26,46.48,12,10.9,28.51,11,9.27,23.84,27.3,23.71,22.55-9.66,37.07-9.71,17.24-13.92,32.9-14,17.54,12.24,32.56,12,14.46-18.29,28.76-18.26H375v87.76H0V120.51Q4.23,115.52,15,115.52Z"/><circle id="Oval-3" class="cls-2" cx="141.5" cy="79.56" r="5.5"/><circle id="Oval-3-Copy" class="cls-2" cx="230.5" cy="159.56" r="5.5"/><path id="Line-2" class="cls-3" d="M141.5,18.41V83.72"/><path id="Line-2-Copy" class="cls-3" d="M230.5,98.41v65.31"/><g id="_110-m.n.m." data-name="110-m.n.m." class="cls-4"><g class="cls-4"><path class="cls-5" d="M112.05,10.06h-1.23V2.22a6.12,6.12,0,0,1-1.16.85,9.07,9.07,0,0,1-1.3.64V2.52a7.75,7.75,0,0,0,1.81-1.18A4.65,4.65,0,0,0,111.26,0h.79Z"/><path class="cls-5" d="M118.8,10.06h-1.23V2.22a6.46,6.46,0,0,1-1.16.85,10.23,10.23,0,0,1-1.3.64V2.52a7.48,7.48,0,0,0,1.8-1.18A4.71,4.71,0,0,0,118,0h.79Z"/><path class="cls-5" d="M122,5.12a9,9,0,0,1,.37-2.86A3.47,3.47,0,0,1,123.41.59,2.77,2.77,0,0,1,125.22,0a3.06,3.06,0,0,1,1.42.32,2.72,2.72,0,0,1,1,.94,5.22,5.22,0,0,1,.62,1.49,10,10,0,0,1,.23,2.37A9.24,9.24,0,0,1,128.13,8,3.61,3.61,0,0,1,127,9.64a3.05,3.05,0,0,1-4.1-.45A6.59,6.59,0,0,1,122,5.12Zm1.27,0a6.31,6.31,0,0,0,.57,3.28,1.66,1.66,0,0,0,2.86,0,6.36,6.36,0,0,0,.57-3.28,6.36,6.36,0,0,0-.57-3.29A1.73,1.73,0,0,0,125.21,1a1.58,1.58,0,0,0-1.36.72A6.38,6.38,0,0,0,123.22,5.12Z"/><path class="cls-5" d="M134,10.06V2.8h1.1v1A2.68,2.68,0,0,1,136,3a2.62,2.62,0,0,1,1.29-.32,2.39,2.39,0,0,1,1.32.33,1.8,1.8,0,0,1,.73.94,2.6,2.6,0,0,1,2.24-1.27,2.22,2.22,0,0,1,1.67.6,2.58,2.58,0,0,1,.58,1.84v5h-1.23V5.49a3.32,3.32,0,0,0-.12-1.06A1.05,1.05,0,0,0,142,3.9a1.38,1.38,0,0,0-.74-.19,1.75,1.75,0,0,0-1.27.5,2.24,2.24,0,0,0-.51,1.63v4.22h-1.23V5.35a2.06,2.06,0,0,0-.3-1.23,1.12,1.12,0,0,0-1-.41A1.78,1.78,0,0,0,136,4a1.51,1.51,0,0,0-.64.8,4.53,4.53,0,0,0-.2,1.52v3.76Z"/><path class="cls-5" d="M146,10.06V8.66h1.4v1.4Z"/><path class="cls-5" d="M149.52,10.06V2.8h1.11v1a2.61,2.61,0,0,1,2.31-1.19,3,3,0,0,1,1.21.24,1.88,1.88,0,0,1,.82.61,2.4,2.4,0,0,1,.38.91,6.62,6.62,0,0,1,.07,1.2v4.46h-1.23V5.65a3.54,3.54,0,0,0-.14-1.13,1.22,1.22,0,0,0-.51-.59,1.62,1.62,0,0,0-.86-.22,2,2,0,0,0-1.36.49,2.49,2.49,0,0,0-.57,1.9v4Z"/><path class="cls-5" d="M157.66,10.06V8.66h1.4v1.4Z"/><path class="cls-5" d="M161.2,10.06V2.8h1.1v1a2.68,2.68,0,0,1,.91-.86,2.62,2.62,0,0,1,1.29-.32,2.39,2.39,0,0,1,1.32.33,1.8,1.8,0,0,1,.73.94,2.59,2.59,0,0,1,2.24-1.27,2.19,2.19,0,0,1,1.66.6A2.54,2.54,0,0,1,171,5.08v5h-1.22V5.49a3.32,3.32,0,0,0-.12-1.06,1.05,1.05,0,0,0-.43-.53,1.38,1.38,0,0,0-.74-.19,1.73,1.73,0,0,0-1.27.5,2.24,2.24,0,0,0-.51,1.63v4.22h-1.23V5.35a2.06,2.06,0,0,0-.3-1.23,1.12,1.12,0,0,0-1-.41,1.78,1.78,0,0,0-1,.27,1.51,1.51,0,0,0-.64.8,4.28,4.28,0,0,0-.2,1.52v3.76Z"/><path class="cls-5" d="M173.21,10.06V8.66h1.4v1.4Z"/></g></g><g id="_83-m.n.m." data-name="83-m.n.m." class="cls-4"><g class="cls-4"><path class="cls-5" d="M200.32,84.63a2.42,2.42,0,0,1-1.14-.8,2.15,2.15,0,0,1-.37-1.25,2.39,2.39,0,0,1,.79-1.83,3.3,3.3,0,0,1,4.2,0,2.45,2.45,0,0,1,.8,1.86,2.06,2.06,0,0,1-.36,1.21,2.34,2.34,0,0,1-1.12.8A2.55,2.55,0,0,1,205,87.2a2.87,2.87,0,0,1-.91,2.16,3.72,3.72,0,0,1-4.78,0,2.93,2.93,0,0,1-.91-2.2,2.63,2.63,0,0,1,.49-1.63A2.51,2.51,0,0,1,200.32,84.63Zm-.65,2.54a2.33,2.33,0,0,0,.25,1,1.81,1.81,0,0,0,.74.76,2.2,2.2,0,0,0,1.06.27,2,2,0,0,0,1.46-.57,1.94,1.94,0,0,0,.57-1.44,2,2,0,0,0-.59-1.47,2,2,0,0,0-1.48-.58,1.92,1.92,0,0,0-1.44.58A1.94,1.94,0,0,0,199.67,87.17Zm.4-4.63a1.57,1.57,0,0,0,.46,1.17,1.61,1.61,0,0,0,1.19.45,1.58,1.58,0,0,0,1.16-.45,1.47,1.47,0,0,0,.46-1.1,1.55,1.55,0,0,0-.47-1.14A1.62,1.62,0,0,0,201.7,81a1.58,1.58,0,0,0-1.16.45A1.42,1.42,0,0,0,200.07,82.54Z"/><path class="cls-5" d="M206.21,87.42l1.24-.17a2.71,2.71,0,0,0,.72,1.51,1.76,1.76,0,0,0,1.24.46,2,2,0,0,0,1.46-.6,2,2,0,0,0,.6-1.49,1.88,1.88,0,0,0-.55-1.4,2,2,0,0,0-1.41-.55,3.67,3.67,0,0,0-.87.14l.14-1.08h.2a2.48,2.48,0,0,0,1.41-.41,1.39,1.39,0,0,0,.63-1.26,1.47,1.47,0,0,0-.46-1.12,1.61,1.61,0,0,0-1.18-.45,1.69,1.69,0,0,0-1.2.45,2.3,2.3,0,0,0-.61,1.36l-1.23-.22a3.15,3.15,0,0,1,1-1.92,3,3,0,0,1,2-.68,3.32,3.32,0,0,1,1.51.35,2.61,2.61,0,0,1,1.06,1,2.53,2.53,0,0,1,.37,1.29,2.15,2.15,0,0,1-.35,1.19,2.39,2.39,0,0,1-1,.84,2.31,2.31,0,0,1,1.39.86,2.63,2.63,0,0,1,.49,1.61,3,3,0,0,1-1,2.23,3.35,3.35,0,0,1-2.42.91,3.12,3.12,0,0,1-2.19-.79A3.07,3.07,0,0,1,206.21,87.42Z"/><path class="cls-5" d="M218.23,90.06V82.8h1.1v1a2.54,2.54,0,0,1,2.2-1.18,2.39,2.39,0,0,1,1.32.33,1.8,1.8,0,0,1,.73.94,2.59,2.59,0,0,1,2.24-1.27,2.21,2.21,0,0,1,1.66.6,2.54,2.54,0,0,1,.58,1.84v5h-1.22V85.49a3.32,3.32,0,0,0-.12-1.06,1.05,1.05,0,0,0-.43-.53,1.38,1.38,0,0,0-.74-.19,1.73,1.73,0,0,0-1.27.5,2.24,2.24,0,0,0-.51,1.63v4.22h-1.23V85.35a2.06,2.06,0,0,0-.3-1.23,1.13,1.13,0,0,0-1-.41,1.84,1.84,0,0,0-1,.27,1.61,1.61,0,0,0-.64.8,4.57,4.57,0,0,0-.19,1.52v3.76Z"/><path class="cls-5" d="M230.24,90.06v-1.4h1.4v1.4Z"/><path class="cls-5" d="M233.78,90.06V82.8h1.1v1a2.64,2.64,0,0,1,2.32-1.19,3,3,0,0,1,1.2.24,1.92,1.92,0,0,1,.83.61,2.4,2.4,0,0,1,.38.91,7.72,7.72,0,0,1,.07,1.2v4.46h-1.23V85.65a3.23,3.23,0,0,0-.15-1.13,1.12,1.12,0,0,0-.51-.59,1.58,1.58,0,0,0-.85-.22,2,2,0,0,0-1.36.49,2.49,2.49,0,0,0-.57,1.9v4Z"/><path class="cls-5" d="M241.91,90.06v-1.4h1.4v1.4Z"/><path class="cls-5" d="M245.45,90.06V82.8h1.1v1a2.68,2.68,0,0,1,.91-.86,2.64,2.64,0,0,1,1.3-.32,2.44,2.44,0,0,1,1.32.33,1.85,1.85,0,0,1,.73.94,2.59,2.59,0,0,1,2.24-1.27,2.21,2.21,0,0,1,1.66.6,2.54,2.54,0,0,1,.58,1.84v5h-1.22V85.49a3.32,3.32,0,0,0-.12-1.06,1.07,1.07,0,0,0-.44-.53,1.35,1.35,0,0,0-.73-.19,1.76,1.76,0,0,0-1.28.5,2.29,2.29,0,0,0-.5,1.63v4.22h-1.23V85.35a2.06,2.06,0,0,0-.3-1.23,1.13,1.13,0,0,0-1-.41,1.84,1.84,0,0,0-1,.27,1.56,1.56,0,0,0-.64.8,4.53,4.53,0,0,0-.2,1.52v3.76Z"/><path class="cls-5" d="M257.46,90.06v-1.4h1.41v1.4Z"/></g></g></g></g></g></g></g></svg>