<?xml version="1.0" encoding="UTF-8"?>
<svg width="31px" height="34px" viewBox="0 0 31 34" version="1.1" xmlns="http://www.w3.org/2000/svg" xmlns:xlink="http://www.w3.org/1999/xlink">
    <!-- Generator: Sketch 49.3 (51167) - http://www.bohemiancoding.com/sketch -->
    <title>time</title>
    <desc>Created with Sketch.</desc>
    <defs></defs>
    <g id="Symbols" stroke="none" stroke-width="1" fill="none" fill-rule="evenodd">
        <g id="trat-detail" transform="translate(-173.000000, -474.000000)" fill="#FFFFFF">
            <g id="stats" transform="translate(29.000000, 474.000000)">
                <g id="Group-3" transform="translate(121.000000, 0.000000)">
                    <path d="M31.6766335,4.89766726 C32.9954084,4.26624841 34.419656,3.81215693 35.9166667,3.5672849 L35.9166667,1.67741456 C35.9166667,0.751004079 36.6790261,0 37.6370919,0 L39.3629081,0 C40.3130727,0 41.0833333,0.743300474 41.0833333,1.67741456 L41.0833333,3.5672849 C42.686104,3.82945653 44.2054675,4.33145349 45.6012801,5.03413564 L47.8257496,2.86527788 C48.4976174,2.21020674 49.5813435,2.20475947 50.2587982,2.86527788 L51.4791346,4.05510587 C52.1510025,4.710177 52.1565894,5.76680988 51.4791346,6.42732829 L49.7691119,8.09460044 C52.3919429,10.8015182 54,14.4530796 54,18.4708333 C54,26.8172366 47.0604136,33.5833333 38.5,33.5833333 C29.9395864,33.5833333 23,26.8172366 23,18.4708333 C23,14.3494426 24.692086,10.6133796 27.4358694,7.88702307 L25.9387465,6.42732829 C25.2612918,5.76680988 25.2668787,4.710177 25.9387465,4.05510587 L27.1590829,2.86527788 C27.8365377,2.20475947 28.9202637,2.21020674 29.5921316,2.86527788 L31.6766335,4.89766726 Z M38.5,24.1111111 C41.8290497,24.1111111 44.5277778,21.4123831 44.5277778,18.0833333 C44.5277778,14.7542836 41.8290497,12.0555556 38.5,12.0555556 C35.1709503,12.0555556 32.4722222,14.7542836 32.4722222,18.0833333 C32.4722222,21.4123831 35.1709503,24.1111111 38.5,24.1111111 Z" id="time"></path>
                </g>
            </g>
        </g>
    </g>
</svg>