<svg xmlns="http://www.w3.org/2000/svg" xmlns:xlink="http://www.w3.org/1999/xlink" width="33" height="33" viewBox="0 0 33 33"><defs><path id="6upfa" d="M18.55 26v-2.6a.77.77 0 0 0-.77-.76h-2.56a.77.77 0 0 0-.77.76V26A9.73 9.73 0 0 1 7 18.55h2.6c.42 0 .76-.35.76-.77v-2.56a.77.77 0 0 0-.76-.77H7A9.73 9.73 0 0 1 14.45 7v2.6c0 .42.35.76.77.76h2.56c.42 0 .77-.34.77-.76V7A9.73 9.73 0 0 1 26 14.45h-2.6a.77.77 0 0 0-.76.77v2.56c0 .42.34.77.76.77H26A9.73 9.73 0 0 1 18.55 26zm13.68-11.56h-1.96a13.93 13.93 0 0 0-11.7-11.71V.77a.77.77 0 0 0-.78-.77H15.2a.77.77 0 0 0-.77.77v1.96a13.93 13.93 0 0 0-11.71 11.7H.77a.77.77 0 0 0-.77.78v2.58c0 .43.35.77.77.77h1.96a13.93 13.93 0 0 0 11.7 11.71v1.96c0 .42.35.77.78.77h2.58c.43 0 .77-.35.77-.77v-1.96a13.93 13.93 0 0 0 11.71-11.7h1.96c.42 0 .77-.35.77-.78V15.2a.77.77 0 0 0-.77-.77z"/></defs><g><g><use fill="#007dc4" xlink:href="#6upfa"/><use fill="#fff" fill-opacity="0" stroke="#fff" stroke-miterlimit="50" xlink:href="#6upfa"/></g></g></svg>