<svg xmlns="http://www.w3.org/2000/svg" viewBox="0 0 464.52 268.63"><defs><style>.cls-1{fill:#fcbe00;}.cls-2{fill:#007ec5;}</style></defs><title>logo</title><g id="Layer_2" data-name="Layer 2"><g id="Vrstva_1" data-name="Vrstva 1"><path class="cls-1" d="M59.55,166.71H49.43s-3.06.3-5.32-4.4c-2.39-5-6.37-8.72-13.69-8.82-6-.08-15.38,3.74-15.86,20-.46,15.73,8.58,23.2,16.09,23.2,6.72,0,13.15-5.39,14.47-14.29H59.8s-.67,26.66-29.93,26.66C1.28,209.05,0,179.18,0,174.47s1.28-33.58,30.8-33.58c0,0,24.38-1.3,28.75,25.82"/><path class="cls-1" d="M30.9,126.65l15.14-7v4.51c0,4.32-1.56,6.43-5.76,8.64l-9.48,4.94-9.28-4.85c-3.71-1.94-6-4.32-6-9v-4.33Z"/><path class="cls-2" d="M351,144a17.55,17.55,0,0,1-8.6,2.09h-8.68v-.19a41.84,41.84,0,0,1,7.15-8.33c3-2.52,5.33-4.18,9.05-4.18,3.14,0,5.33,1.31,5.33,4.44A7.26,7.26,0,0,1,351,144"/><path class="cls-1" d="M79.16,174.51h21.5q-.43-5.69-3-8.43-2.74-3-7.8-3a10.26,10.26,0,0,0-7.59,3q-3,3-3.16,8.43M104.45,191H115q-2.31,8.85-8.85,13.49Q99.6,209.3,89.7,209.3q-12,0-18.76-7.8-6.75-7.59-6.75-21.72,0-13.49,6.54-21.08,6.74-7.78,18.76-7.8,12.65,0,19.6,7.59,6.75,7.81,6.75,21.72v2.31a3.59,3.59,0,0,1-.22,1.48H79.16q.21,6.54,3.16,9.7,2.73,3.38,8.22,3.37a11.84,11.84,0,0,0,6.11-1.48,9.51,9.51,0,0,0,1.2-.8A6.63,6.63,0,0,0,99,193.7a7.19,7.19,0,0,1,1.58-1.69,6.33,6.33,0,0,1,3.9-1"/><path class="cls-1" d="M121.62,189.69H136a7.76,7.76,0,0,0,3.17,6.32,14.89,14.89,0,0,0,8.42,2.11,13.5,13.5,0,0,0,6.54-1.48,4.45,4.45,0,0,0,2.53-4q0-3.78-8.85-5.69a39.12,39.12,0,0,1-5.7-1.27q-11.16-2.73-15-6.53A12.91,12.91,0,0,1,122.88,169,16.81,16.81,0,0,1,129,155.75q6.31-4.84,16.44-4.85,11,0,17.5,4.85a18.58,18.58,0,0,1,6.53,13.7h-9.06a6.85,6.85,0,0,1-6.12-3.58,5.76,5.76,0,0,0-1.69-1.68,11.21,11.21,0,0,0-6.95-1.9,12.55,12.55,0,0,0-6.32,1.26,4.25,4.25,0,0,0-1.9,3.8q0,3.38,11,5.69c1.14.24,2.79.53,4,.84q10.76,2.76,15,6.33a13.26,13.26,0,0,1,4,10.11q0,9.28-6.75,14.34-6.31,4.64-19,4.64-12,0-17.92-4.85-6.12-4.84-6.11-14.13Z"/><path class="cls-1" d="M193.27,158.89V174.4l18.63-21.79,17-.45-20,21.51,20.23,34.57H211.4l-10.33-19q-3.16-5.69-5.48-4.85c-1.55.57-2.32,1.41-2.32,2.53v21.29H178.51v-65.8h7.59a6.91,6.91,0,0,1,5.06,2.12,6.68,6.68,0,0,1,2.11,4.85Z"/><path class="cls-1" d="M263.46,180a40.63,40.63,0,0,1-8.23,2.74l-4.84,1c-2.53.7-4.72,1.8-5.49,2.74a7.6,7.6,0,0,0-1.47,4.64,6.84,6.84,0,0,0,1.9,5.06,8,8,0,0,0,5.48,1.68q5.9,0,9.27-3.37t3.38-9.28Zm3.37,25.92a25.86,25.86,0,0,1-9.39,2.85,84.08,84.08,0,0,1-8.74.53,22,22,0,0,1-13.28-4.12q-5.68-4.1-5.69-13.59c0-5.91,1.71-10.12,5.16-12.65a29.73,29.73,0,0,1,13.18-5.06l2.5-.37L254,173q9.27-1.26,9.28-5.48a4,4,0,0,0-3.27-4.11,21.41,21.41,0,0,0-6-.95,15.42,15.42,0,0,0-5.27.84,5.73,5.73,0,0,0-3.37,3.16H231.2a16.24,16.24,0,0,1,5.91-10.75q5.69-4.84,16.23-4.85,11.8,0,17.7,4a13.55,13.55,0,0,1,6.12,11.81V185.9q0,8.43-3.06,13.17a18.61,18.61,0,0,1-7.27,6.85"/><path class="cls-2" d="M383.19,99.05h-.08S328.43,65.43,351.33,40c0,0,11.61-15.28,31.57,4.91h.5C404.4,26.05,415,40,415,40c22.9,25.48-31.78,59.1-31.78,59.1m60.1-45.75c-.07-.55-.14-1.1-.22-1.63a60.84,60.84,0,0,0-1.27-6.26c-.36-1.41-.77-2.81-1.23-4.18-.18-.53-.36-1.06-.56-1.58a60,60,0,0,0-7.32-13.88h0a25.09,25.09,0,0,0-27.82-8.32C390.61,21.69,386,31.78,384.29,37h-1.4c.9-12,4.58-23.79,17.52-30.58a44.28,44.28,0,0,1,5-2.2A60.86,60.86,0,0,0,331,29.74a61.16,61.16,0,0,0-2.89,5.5c-.8,1.73-1.51,3.51-2.15,5.33-.32.91-.61,1.83-.88,2.75A58.85,58.85,0,0,0,323,53.38a60.57,60.57,0,1,0,120.71,7.19,62.25,62.25,0,0,0-.43-7.27"/><path class="cls-2" d="M332.68,152h7.77a7.39,7.39,0,0,1,7.34,7.34v48.74H332.68Z"/><path class="cls-2" d="M397.23,180.23q0-8.26-3.18-12.72a10.52,10.52,0,0,0-9.12-4.45,10.31,10.31,0,0,0-8.9,4.45q-3,4-3,12.72,0,8.06,3.18,12.08a10.51,10.51,0,0,0,9.11,4.45,10.12,10.12,0,0,0,8.7-4.45q3.18-4.45,3.18-12.08m-24.17,41.55a7.24,7.24,0,0,1-7.21,7.2h-7.2V176.2q0-14.83,8.69-20.24a35,35,0,0,1,18.87-5.41,30.57,30.57,0,0,1,10.7,2,20,20,0,0,1,8.58,5.83q6.36,8.28,6.36,21.2,0,13.35-6.36,21.62a19.88,19.88,0,0,1-16.32,8.06,21.48,21.48,0,0,1-9.33-1.91,16,16,0,0,1-6.78-6.57Z"/><path class="cls-2" d="M450.74,179.81a40.22,40.22,0,0,1-8.27,2.75l-4.87,1.06c-2.55.71-4.74,1.81-5.51,2.76A7.53,7.53,0,0,0,430.6,191a6.9,6.9,0,0,0,1.91,5.09,8,8,0,0,0,5.51,1.69q5.94,0,9.33-3.39t3.39-9.33Zm3.39,26.07a26.27,26.27,0,0,1-9.43,2.86,85.31,85.31,0,0,1-8.8.53,22.17,22.17,0,0,1-13.35-4.14q-5.73-4.12-5.73-13.67c0-5.94,1.73-10.17,5.2-12.72a30,30,0,0,1,13.25-5.09l2.51-.36,3.42-.48q9.33-1.27,9.33-5.51c0-2.12-1.13-3.41-3.29-4.14a17.66,17.66,0,0,0-6-.95,15.31,15.31,0,0,0-5.3.85,5.74,5.74,0,0,0-3.39,3.18h-14.2a16.31,16.31,0,0,1,5.93-10.81q5.73-4.89,16.32-4.88,11.88,0,17.81,4a13.62,13.62,0,0,1,6.15,11.88v19.29q0,8.47-3.07,13.25a18.91,18.91,0,0,1-7.32,6.89"/><path class="cls-2" d="M313.68,141.87h-6.8s-8.23-.39-8.23,8.23V185s-.63,23,26.9,23V196.31s.2-2-3.66-2.81c-3.21-.71-8.35-2.94-8.35-11.89,0-9.79.14-39.74.14-39.74"/><path class="cls-1" d="M268.85,144a17.55,17.55,0,0,1-8.6,2.09h-8.68v-.19a41.84,41.84,0,0,1,7.15-8.33c3-2.52,5.33-4.18,9-4.18,3.14,0,5.33,1.31,5.33,4.44a7.26,7.26,0,0,1-4.25,6.17"/><path class="cls-2" d="M2.39,248.88h4v2.68h.11a6.42,6.42,0,0,1,5.91-3.2c2.35,0,4.54,1,5.4,3.2a6.93,6.93,0,0,1,6-3.2c4,0,6.43,1.79,6.43,6.47v13.28H26V256.88c0-3-.18-5.17-3.49-5.17-2.86,0-4.09,1.89-4.09,5.13v11.27H14.22V255.76c0-2.64-.82-4-3.39-4-2.19,0-4.2,1.78-4.2,5v11.42H2.39Z"/><path class="cls-2" d="M37.59,259.59c0,3,1.63,5.69,5.17,5.69a4.45,4.45,0,0,0,4.68-3.2h4c-.93,4.2-4.5,6.55-8.7,6.55-6,0-9.41-4.21-9.41-10.12,0-5.46,3.57-10.15,9.29-10.15,6.07,0,9.78,5.47,9.08,11.23Zm7.62-13.35H41.08l-4-5.32h3.42l2.61,3.31,2.64-3.31h3.46Zm2.27,10.56c-.15-2.68-2-5.09-4.84-5.09a5,5,0,0,0-5,5.09Z"/><path class="cls-2" d="M57.83,261.93c.22,2.46,2.08,3.35,4.35,3.35,1.59,0,4.38-.34,4.27-2.53s-3.2-2.49-6.28-3.2S54,257.77,54,253.86c0-4.2,4.53-5.5,8-5.5,3.94,0,7.51,1.64,8,5.91H65.63c-.37-2-2-2.56-3.9-2.56-1.23,0-3.5.3-3.5,2,0,2.08,3.13,2.38,6.25,3.09s6.21,1.82,6.21,5.61c0,4.57-4.61,6.25-8.59,6.25-4.83,0-8.44-2.16-8.51-6.7Z"/><path class="cls-2" d="M71.73,248.88h3.19v-5.76h4.24v5.76H83V252H79.16v10.27c0,1.74.15,2.63,2,2.63A7.64,7.64,0,0,0,83,264.8v3.27c-.93.07-1.82.22-2.75.22-4.42,0-5.24-1.71-5.32-4.91V252H71.73Z"/><path class="cls-2" d="M84.19,258.48c0-5.88,3.53-10.12,9.71-10.12s9.7,4.24,9.7,10.12-3.53,10.15-9.7,10.15S84.19,264.39,84.19,258.48Zm15.17,0c0-3.31-1.67-6.77-5.46-6.77s-5.47,3.46-5.47,6.77,1.67,6.8,5.47,6.8S99.36,261.82,99.36,258.48Z"/><path class="cls-2" d="M117.1,248.88h4v2.68h.11a6.41,6.41,0,0,1,5.91-3.2c2.34,0,4.54,1,5.39,3.2a7,7,0,0,1,6-3.2c4.05,0,6.43,1.79,6.43,6.47v13.28h-4.24V256.88c0-3-.19-5.17-3.49-5.17-2.87,0-4.09,1.89-4.09,5.13v11.27h-4.24V255.76c0-2.64-.82-4-3.39-4-2.19,0-4.2,1.78-4.2,5v11.42H117.1Z"/><path class="cls-2" d="M152.29,259.59c0,3,1.64,5.69,5.17,5.69a4.46,4.46,0,0,0,4.69-3.2h4c-.93,4.2-4.5,6.55-8.71,6.55-6,0-9.4-4.21-9.4-10.12,0-5.46,3.57-10.15,9.29-10.15,6.06,0,9.78,5.47,9.08,11.23Zm9.9-2.79c-.15-2.68-2-5.09-4.84-5.09a5,5,0,0,0-5.06,5.09Zm-4-15.88h5L158,246.24h-3.09Z"/><path class="cls-2" d="M169.3,241.56h4.24v9.85h.07a6.73,6.73,0,0,1,5.76-3c4.17,0,6.81,2.23,6.81,6.54v13.21h-4.24V256c-.07-3-1.26-4.31-3.76-4.31-2.82,0-4.64,2.23-4.64,5.06v11.34H169.3Z"/><path class="cls-2" d="M189.22,258.48c0-5.88,3.53-10.12,9.71-10.12s9.7,4.24,9.7,10.12-3.53,10.15-9.7,10.15S189.22,264.39,189.22,258.48Zm15.17,0c0-3.31-1.67-6.77-5.46-6.77s-5.47,3.46-5.47,6.77,1.67,6.8,5.47,6.8S204.39,261.82,204.39,258.48Z"/><path class="cls-2" d="M225.33,261.93c.22,2.46,2.08,3.35,4.35,3.35,1.6,0,4.39-.34,4.28-2.53s-3.2-2.49-6.29-3.2-6.17-1.78-6.17-5.69c0-4.2,4.54-5.5,8-5.5,3.94,0,7.51,1.64,8,5.91h-4.42c-.37-2-2-2.56-3.91-2.56-1.22,0-3.49.3-3.49,2,0,2.08,3.12,2.38,6.25,3.09s6.21,1.82,6.21,5.61c0,4.57-4.61,6.25-8.59,6.25-4.84,0-8.44-2.16-8.52-6.7Z"/><path class="cls-2" d="M241.14,248.88h4v3.72h.08a6.21,6.21,0,0,1,5.61-4.24,11.14,11.14,0,0,1,1.6.11v4.09a16.25,16.25,0,0,0-1.82-.18c-2.9,0-5.21,2.34-5.21,6.58v9.15h-4.24Z"/><path class="cls-2" d="M272.25,268.11h-4V265.5h-.07c-1.12,2.2-3.53,3.13-6,3.13-6.06,0-9-4.5-9-10.27,0-7,4.13-10,8.33-10,2.42,0,5.09.89,6.39,3H268v-9.81h4.24Zm-9.48-2.83c3.79,0,5.39-3.46,5.39-6.8,0-4.24-2.05-6.77-5.32-6.77-4,0-5.39,3.53-5.39,7S259.08,265.28,262.77,265.28Z"/><path class="cls-2" d="M289.32,255.31a4.07,4.07,0,0,0-4.39-3.6c-2.19,0-5.28,1.15-5.28,7,0,3.2,1.41,6.58,5.09,6.58,2.46,0,4.17-1.64,4.58-4.39h4.24c-.78,5-3.87,7.74-8.82,7.74-6,0-9.33-4.28-9.33-9.93s3.16-10.34,9.48-10.34c4.46,0,8.26,2.23,8.67,6.95Z"/><path class="cls-2" d="M299.9,259.59c0,3,1.64,5.69,5.17,5.69a4.45,4.45,0,0,0,4.68-3.2h4c-.93,4.2-4.5,6.55-8.7,6.55-6,0-9.41-4.21-9.41-10.12,0-5.46,3.57-10.15,9.3-10.15,6.06,0,9.78,5.47,9.07,11.23Zm9.89-2.79c-.15-2.68-2-5.09-4.83-5.09a5,5,0,0,0-5.06,5.09Z"/></g></g></svg>