<svg xmlns="http://www.w3.org/2000/svg" xmlns:xlink="http://www.w3.org/1999/xlink" width="244" height="170" viewBox="0 0 244 170"><defs><path id="tv8xa" d="M78.71 207.88c-17.38 7.53-18.1 9.93 5.13 43.9 18.54 27.1.77 59.08 6.69 76.44 5.92 17.37 9.92 7.83 9.92 22.7 0 9.91-20.7 4-26.11 13.84-3.47 6.3 15.34 9.62 21.88 9.62 10.63 0 20.54 5.2 33.35-3.04 47.6-30.62 88.05-4.19 101.3-27.8 13.25-23.63 22.58 28.18 34.6 21.22 12.02-6.96 57.13-25.17 41.14-68.05-5.55-14.9-18.04 12.17-38.07 0-.85-.52-8.6-13.6-9.64-13.99-28.7-10.9-64.05-64.8-86.63-64.8-79.88 0-76.18-17.57-93.56-10.04z"/><mask id="tv8xc" width="2" height="2" x="-1" y="-1"><path fill="#fff" d="M66 206h244v170H66z"/><use xlink:href="#tv8xa"/></mask><filter id="tv8xb" width="314" height="242" x="31" y="196" filterUnits="userSpaceOnUse"><feOffset dy="2" in="SourceGraphic" result="FeOffset1041Out"/><feGaussianBlur in="FeOffset1041Out" result="FeGaussianBlur1042Out" stdDeviation="10 10"/></filter></defs><g><g transform="translate(-66 -206)"><g filter="url(#tv8xb)"><use fill="none" stroke-opacity=".11" stroke-width="0" mask="url(&quot;#tv8xc&quot;)" xlink:href="#tv8xa"/><use fill-opacity=".11" xlink:href="#tv8xa"/></g><use fill="#fff" fill-opacity="0" stroke="#fabc00" stroke-miterlimit="50" stroke-width="6" xlink:href="#tv8xa"/></g></g></svg>